<svg xmlns="http://www.w3.org/2000/svg" viewBox="0 0 17 13" width="17" height="13">
	<style>
		tspan { white-space:pre }
		.shp0 { fill: #000000 } 
	</style>
	<g id="Items details">
		<g id="Details">
			<g id="HTML Check">
				<path id="Forma 1 copy 7" class="shp0" d="M2.15 7.5C2.05 7.4 2 7.25 2 7.15C2 7.05 2.05 6.9 2.15 6.8L2.85 6.1C3.05 5.9 3.35 5.9 3.55 6.1L3.6 6.15L6.35 9.1C6.45 9.2 6.6 9.2 6.7 9.1L13.39 2.16L13.44 2.16L13.44 2.16L13.44 2.16C13.64 1.96 13.94 1.96 14.14 2.16L14.84 2.86C15.04 3.06 15.04 3.36 14.84 3.56L14.84 3.56L14.84 3.56L6.85 11.85C6.75 11.95 6.65 12 6.5 12C6.35 12 6.25 11.95 6.15 11.85L2.25 7.65L2.15 7.5Z" />
			</g>
		</g>
	</g>
</svg>