<svg xmlns="http://www.w3.org/2000/svg" viewBox="0 0 22 22" width="22" height="22">
	<style>
		tspan { white-space:pre }
		.shp0 { fill: #0674ec } 
	</style>
	<g id="Filter Bar">
		<g id="Grid &amp; List icon">
			<path id="Grid" class="shp0" d="M11 12.94C10.77 12.94 10.58 13.13 10.58 13.36L10.58 14.93C10.58 15.16 10.77 15.35 11 15.35C11.23 15.35 11.42 15.16 11.42 14.93L11.42 13.36C11.42 13.13 11.23 12.94 11 12.94ZM11 6.65C10.77 6.65 10.58 6.84 10.58 7.07L10.58 8.64C10.58 8.87 10.77 9.06 11 9.06C11.23 9.06 11.42 8.87 11.42 8.64L11.42 7.07C11.42 6.84 11.23 6.65 11 6.65ZM11 16.08C10.77 16.08 10.58 16.27 10.58 16.5L10.58 18.08C10.58 18.31 10.77 18.49 11 18.49C11.23 18.49 11.42 18.31 11.42 18.08L11.42 16.5C11.42 16.27 11.23 16.08 11 16.08ZM11 3.5C10.77 3.5 10.58 3.69 10.58 3.92L10.58 5.5C10.58 5.73 10.77 5.91 11 5.91C11.23 5.91 11.42 5.73 11.42 5.5L11.42 3.92C11.42 3.69 11.23 3.5 11 3.5ZM5.54 10.58L3.98 10.58C3.75 10.58 3.56 10.77 3.56 11C3.56 11.23 3.75 11.42 3.98 11.42L5.54 11.42C5.77 11.42 5.95 11.23 5.95 11C5.95 10.77 5.77 10.58 5.54 10.58ZM8.66 10.58L7.1 10.58C6.87 10.58 6.68 10.77 6.68 11C6.68 11.23 6.87 11.42 7.1 11.42L8.66 11.42C8.89 11.42 9.07 11.23 9.07 11C9.07 10.77 8.89 10.58 8.66 10.58ZM11.78 10.58L11.42 10.58L11.42 10.21C11.42 9.98 11.23 9.79 11 9.79C10.77 9.79 10.58 9.98 10.58 10.21L10.58 10.58L10.22 10.58C9.99 10.58 9.8 10.77 9.8 11C9.8 11.23 9.99 11.42 10.22 11.42L10.58 11.42L10.58 11.79C10.58 12.02 10.77 12.2 11 12.2C11.23 12.2 11.42 12.02 11.42 11.79L11.42 11.42L11.78 11.42C12.01 11.42 12.2 11.23 12.2 11C12.2 10.77 12.01 10.58 11.78 10.58ZM18.02 10.58L16.46 10.58C16.23 10.58 16.05 10.77 16.05 11C16.05 11.23 16.23 11.42 16.46 11.42L18.02 11.42C18.25 11.42 18.44 11.23 18.44 11C18.44 10.77 18.25 10.58 18.02 10.58ZM14.9 10.58L13.34 10.58C13.11 10.58 12.93 10.77 12.93 11C12.93 11.23 13.11 11.42 13.34 11.42L14.9 11.42C15.13 11.42 15.32 11.23 15.32 11C15.32 10.77 15.13 10.58 14.9 10.58ZM20.53 1.1L1.47 1.1C1.24 1.1 1.06 1.28 1.06 1.51L1.06 20.49C1.06 20.72 1.24 20.9 1.47 20.9L20.53 20.9C20.76 20.9 20.94 20.72 20.94 20.49L20.94 1.51C20.94 1.28 20.76 1.1 20.53 1.1ZM20.11 10.58L19.58 10.58C19.35 10.58 19.17 10.77 19.17 11C19.17 11.23 19.35 11.42 19.58 11.42L20.11 11.42L20.11 20.07L11.42 20.07L11.42 19.65C11.42 19.42 11.23 19.23 11 19.23C10.77 19.23 10.58 19.42 10.58 19.65L10.58 20.07L1.89 20.07L1.89 11.42L2.42 11.42C2.64 11.42 2.83 11.23 2.83 11C2.83 10.77 2.65 10.58 2.42 10.58L1.89 10.58L1.89 1.93L10.58 1.93L10.58 2.35C10.58 2.58 10.77 2.77 11 2.77C11.23 2.77 11.42 2.58 11.42 2.35L11.42 1.93L20.11 1.93L20.11 10.58Z" />
		</g>
	</g>
</svg>