<svg xmlns="http://www.w3.org/2000/svg" viewBox="0 0 23 22" width="23" height="22">
	<style>
		tspan { white-space:pre }
		.shp0 { fill: #747b86 } 
	</style>
	<g id="Filter Bar">
		<g id="Grid &amp; List icon">
			<path id="List" class="shp0" d="M20.72 11.15L8.51 11.15C8.35 11.15 8.22 11.28 8.22 11.44C8.22 11.6 8.35 11.72 8.51 11.72L20.72 11.72C20.88 11.72 21.02 11.6 21.02 11.44C21.02 11.28 20.88 11.15 20.72 11.15ZM20.72 9.31L8.51 9.31C8.35 9.31 8.22 9.44 8.22 9.59C8.22 9.75 8.35 9.88 8.51 9.88L20.72 9.88C20.88 9.88 21.02 9.75 21.02 9.59C21.02 9.44 20.88 9.31 20.72 9.31ZM5.69 7.77L1.94 7.77C1.43 7.77 1.02 8.18 1.02 8.67L1.02 12.36C1.02 12.85 1.43 13.26 1.94 13.26L5.69 13.26C6.2 13.26 6.61 12.85 6.61 12.36L6.61 8.67C6.61 8.18 6.2 7.77 5.69 7.77ZM6.03 12.36C6.03 12.54 5.88 12.68 5.69 12.68L1.94 12.68C1.75 12.68 1.6 12.54 1.6 12.36L1.6 8.67C1.6 8.49 1.75 8.35 1.94 8.35L5.69 8.35C5.88 8.35 6.03 8.49 6.03 8.67L6.03 12.36ZM20.72 4.39L8.51 4.39C8.35 4.39 8.22 4.52 8.22 4.68C8.22 4.84 8.35 4.97 8.51 4.97L20.72 4.97C20.88 4.97 21.02 4.84 21.02 4.68C21.02 4.52 20.88 4.39 20.72 4.39ZM8.51 3.13L20.72 3.13C20.88 3.13 21.02 3 21.02 2.84C21.02 2.68 20.88 2.55 20.72 2.55L8.51 2.55C8.35 2.55 8.22 2.68 8.22 2.84C8.22 3 8.35 3.13 8.51 3.13ZM5.69 1.02L1.94 1.02C1.43 1.02 1.02 1.42 1.02 1.92L1.02 5.6C1.02 6.1 1.43 6.51 1.94 6.51L5.69 6.51C6.2 6.51 6.61 6.1 6.61 5.6L6.61 1.92C6.61 1.42 6.2 1.02 5.69 1.02ZM6.03 5.6C6.03 5.78 5.88 5.93 5.69 5.93L1.94 5.93C1.75 5.93 1.6 5.78 1.6 5.6L1.6 1.92C1.6 1.74 1.75 1.59 1.94 1.59L5.69 1.59C5.88 1.59 6.03 1.74 6.03 1.92L6.03 5.6ZM20.72 17.9L8.51 17.9C8.35 17.9 8.22 18.03 8.22 18.19C8.22 18.35 8.35 18.48 8.51 18.48L20.72 18.48C20.88 18.48 21.02 18.35 21.02 18.19C21.02 18.03 20.88 17.9 20.72 17.9ZM20.72 16.06L8.51 16.06C8.35 16.06 8.22 16.19 8.22 16.35C8.22 16.51 8.35 16.64 8.51 16.64L20.72 16.64C20.88 16.64 21.02 16.51 21.02 16.35C21.02 16.19 20.88 16.06 20.72 16.06ZM5.69 14.53L1.94 14.53C1.43 14.53 1.02 14.93 1.02 15.43L1.02 19.11C1.02 19.61 1.43 20.01 1.94 20.01L5.69 20.01C6.2 20.01 6.61 19.61 6.61 19.11L6.61 15.43C6.61 14.93 6.2 14.53 5.69 14.53ZM6.03 19.11C6.03 19.29 5.88 19.44 5.69 19.44L1.94 19.44C1.75 19.44 1.6 19.29 1.6 19.11L1.6 15.43C1.6 15.25 1.75 15.1 1.94 15.1L5.69 15.1C5.88 15.1 6.03 15.25 6.03 15.43L6.03 19.11Z" />
		</g>
	</g>
</svg>